<?xml version="1.0" standalone="no"?>
<!DOCTYPE svg PUBLIC "-//W3C//DTD SVG 20010904//EN"
 "http://www.w3.org/TR/2001/REC-SVG-20010904/DTD/svg10.dtd">
<svg version="1.0" xmlns="http://www.w3.org/2000/svg"
 width="300.000000pt" height="184.000000pt" viewBox="0 0 300.000000 184.000000"
 preserveAspectRatio="xMidYMid meet">
<metadata>
Created by potrace 1.10, written by Peter Selinger 2001-2011
</metadata>
<g transform="translate(0.000000,184.000000) scale(0.050000,-0.050000)"
fill="#000000" stroke="none">
<path d="M1139 3289 c-16 -20 -43 -27 -71 -20 -91 23 -528 -342 -528 -441 0
-16 -24 -51 -54 -76 l-54 -47 34 -217 c69 -434 76 -659 34 -1065 -21 -205 -48
-512 -60 -683 -12 -170 -35 -403 -51 -516 -16 -113 -29 -209 -29 -215 0 -19
158 -8 171 12 7 12 14 66 14 120 1 55 9 99 18 99 10 0 14 41 10 90 -4 50 1 96
11 103 11 6 15 29 9 51 -7 28 1 43 28 51 46 11 49 32 11 70 -36 37 -53 200
-18 186 14 -5 30 -1 37 10 6 10 2 19 -10 19 -11 0 -21 19 -21 41 0 27 8 36 23
27 17 -10 19 -3 9 24 -23 58 -29 128 -9 116 35 -22 39 51 5 102 -23 35 -28 58
-14 67 14 9 15 55 3 141 -12 89 -10 136 5 155 31 37 136 35 151 -3 6 -16 33
-30 60 -30 57 0 82 -48 47 -90 -30 -36 1 -40 38 -5 21 20 25 17 19 -15 -4 -22
-36 -53 -72 -70 -68 -32 -84 -74 -35 -93 17 -6 30 -20 30 -32 0 -12 -11 -11
-28 4 -20 16 -33 16 -41 2 -25 -39 8 -60 61 -40 69 26 69 27 55 -41 -7 -35 -4
-60 8 -60 42 0 42 -61 1 -100 -37 -34 -38 -40 -10 -40 25 0 35 -18 36 -65 8
-273 14 -336 33 -359 12 -14 28 -75 36 -136 8 -60 17 -128 20 -150 3 -22 6
-47 7 -56 1 -9 11 -11 22 -4 25 15 25 6 0 -59 -19 -50 -17 -51 70 -51 50 0 90
2 90 5 0 3 -14 50 -31 105 -153 494 -242 1337 -154 1461 23 33 47 106 54 164
15 125 104 344 155 381 20 15 36 44 36 65 0 21 27 63 60 92 37 34 60 73 60
105 0 39 -16 59 -60 79 -58 25 -82 63 -40 63 11 0 20 14 20 30 0 37 -3 37
-137 1 -59 -16 -174 -31 -255 -34 -155 -6 -190 -32 -99 -73 31 -14 111 -18
216 -10 190 13 255 -8 255 -83 0 -26 -13 -52 -30 -58 -16 -7 -30 -24 -30 -40
0 -27 -28 -34 -288 -70 -117 -16 -136 -45 -50 -77 77 -30 63 -54 -52 -93 l-89
-30 -33 68 c-18 38 -39 69 -47 69 -8 0 -26 52 -40 115 -49 216 -55 235 -78
230 -39 -9 -26 112 17 155 51 51 51 74 -1 90 -41 13 -38 91 4 107 9 3 13 14 7
23 -12 19 67 50 84 33 6 -6 73 22 150 62 99 52 172 75 252 81 l114 8 126 -127
127 -126 -15 110 c-17 138 -40 200 -86 232 -20 14 -42 54 -49 89 -23 115 -114
159 -174 87z m70 -77 c51 -13 184 -165 163 -186 -7 -7 -86 11 -177 41 -91 29
-178 54 -195 55 -20 1 -22 4 -5 11 17 7 19 21 6 46 -29 53 67 68 208 33z
m-115 -1207 c22 -86 1 -170 -56 -227 -39 -39 -110 -53 -88 -18 7 11 -3 20 -23
20 -72 0 -198 78 -202 125 -2 41 -1 42 23 10 15 -19 43 -35 64 -35 32 -1 33
-4 8 -20 -16 -11 -21 -21 -10 -22 63 -8 81 -6 93 10 20 28 -25 112 -61 113
-18 1 9 17 58 37 60 23 98 29 115 16 18 -14 25 -7 25 24 0 68 34 48 54 -33z"/>
<path d="M2270 3050 c-77 -26 -155 -49 -174 -49 -63 -2 -63 -46 0 -99 69 -57
126 -173 121 -246 -10 -146 111 -511 166 -500 18 3 39 -3 46 -15 15 -24 151
-29 151 -6 -1 43 -45 70 -128 80 -104 12 -95 -8 -132 265 -13 97 -44 211 -71
265 -45 91 -46 95 -9 95 66 0 215 -123 231 -190 8 -33 30 -92 50 -131 20 -40
42 -126 50 -193 17 -147 35 -184 80 -156 18 11 31 28 29 38 -2 10 9 25 23 35
22 14 22 20 0 35 -23 14 -23 19 0 28 19 8 20 16 5 27 -12 10 -22 31 -22 47 -3
174 -220 520 -327 520 -32 0 -204 81 -194 91 44 45 247 18 387 -49 91 -45 213
-194 290 -356 67 -140 86 -155 58 -45 -35 143 -126 331 -182 379 -64 55 -73
80 -29 80 16 0 63 -36 103 -80 40 -43 89 -84 108 -90 41 -13 90 -111 64 -128
-25 -16 -16 -173 9 -168 11 2 21 -7 21 -20 1 -43 49 -203 68 -227 13 -14 9
-26 -11 -34 -17 -6 -25 -25 -19 -41 6 -16 1 -46 -11 -66 -20 -32 -21 -30 -17
14 7 59 -111 65 -153 8 -13 -18 -61 -33 -118 -37 -52 -4 -99 -11 -105 -16 -17
-18 16 -75 44 -75 15 0 28 -8 28 -17 0 -24 187 -17 205 7 9 13 14 12 15 -3 0
-26 -34 -55 -86 -74 -25 -9 -32 -5 -22 12 8 14 -5 8 -29 -13 -23 -21 -43 -31
-43 -21 0 9 -11 6 -24 -7 -38 -38 -151 -30 -162 11 -9 33 -9 33 -12 0 -1 -19
-11 -35 -21 -35 -11 0 -14 14 -7 32 10 28 -21 67 -55 68 -16 0 -10 -106 7
-133 8 -13 9 -38 2 -55 -17 -43 77 -77 168 -60 60 12 69 9 58 -19 -8 -21 -3
-33 14 -33 56 0 78 -55 32 -80 -36 -19 -39 -28 -16 -55 21 -25 21 -33 1 -40
-14 -5 -19 -19 -11 -32 37 -59 21 -84 -49 -74 -38 4 -30 -73 11 -103 62 -44
69 -95 19 -137 l-45 -38 70 -2 c65 -3 66 -4 20 -19 -48 -15 -47 -16 13 -18 53
-2 62 -8 53 -42 -6 -22 -1 -40 11 -40 13 0 22 -20 22 -45 -2 -112 19 -282 37
-293 11 -6 20 -51 20 -99 1 -49 15 -102 32 -121 18 -20 26 -52 19 -78 -7 -27
0 -59 18 -80 30 -34 58 -142 73 -289 2 -17 142 -21 142 -4 0 6 -31 134 -68
285 -37 151 -92 387 -121 524 -29 138 -67 315 -84 395 -40 192 31 477 222 891
l53 117 -39 83 c-27 58 -42 140 -47 264 -12 256 -25 276 -276 417 -42 24 -363
114 -399 112 -6 0 -74 -22 -151 -49z m568 -1170 c20 0 35 -13 35 -30 0 -16
-12 -30 -26 -30 -15 0 -27 -21 -27 -49 0 -27 -10 -55 -23 -63 -17 -10 -19 5
-10 53 11 52 8 62 -10 44 -18 -18 -29 -16 -49 11 -30 41 2 92 47 75 15 -6 44
-11 63 -11z"/>
<path d="M1980 2903 c0 -10 12 -53 27 -95 23 -67 49 -342 64 -672 9 -200 25
-275 140 -658 89 -294 169 -936 169 -1350 l0 -128 77 0 77 0 0 120 c0 66 -7
120 -17 120 -9 0 -17 10 -17 21 0 12 9 16 20 9 11 -7 21 -5 23 4 11 72 9 106
-7 106 -10 0 -17 59 -14 132 3 88 -3 137 -20 147 -18 11 -23 65 -18 188 5 108
0 175 -13 179 -22 8 -33 354 -11 354 25 0 -5 123 -33 134 -15 6 -27 23 -27 38
0 15 -14 28 -31 28 -17 0 -26 9 -19 19 6 11 -4 49 -22 85 -19 36 -36 105 -38
153 -2 48 -14 93 -25 100 -59 36 -109 274 -115 543 -5 218 -43 482 -49 335 -2
-62 -39 -37 -52 35 -12 60 -69 104 -69 53z"/>
<path d="M1010 2826 c-22 -6 -51 -19 -64 -29 -29 -24 -203 -29 -251 -8 -20 9
-35 7 -35 -4 0 -36 178 -90 256 -77 303 48 413 39 430 -33 6 -25 24 -81 40
-124 l30 -79 42 69 c49 81 53 137 13 190 -28 37 -29 37 -18 -11 6 -28 3 -41
-6 -30 -9 11 -30 23 -46 26 -16 4 -68 33 -116 65 -85 58 -168 71 -275 45z"/>
<path d="M3780 2711 c0 -54 103 -151 160 -151 21 0 42 -7 47 -15 5 -8 -47 -14
-116 -12 -106 3 -126 -2 -123 -30 3 -41 -86 -55 -171 -25 -57 20 -59 19 -53
-33 13 -117 247 -152 421 -63 46 24 130 23 145 -2 7 -11 27 -20 44 -20 62 0
208 -89 261 -159 30 -39 72 -86 94 -105 59 -50 13 -44 -67 9 -176 115 -205
119 -352 44 -157 -80 -181 -102 -151 -138 38 -46 130 -37 214 20 45 30 87 45
106 37 17 -8 60 -18 95 -23 47 -7 75 -28 105 -77 22 -37 49 -68 60 -68 12 0
21 -32 21 -71 0 -114 113 -288 157 -244 17 17 23 17 23 0 0 -12 -50 -52 -112
-89 -61 -36 -138 -87 -170 -113 -69 -55 -63 -56 -338 70 -228 104 -425 135
-550 87 l-60 -23 95 -41 c52 -23 95 -50 95 -60 0 -25 -81 1 -124 39 -43 37
-96 19 -96 -32 0 -31 23 -44 105 -63 58 -13 186 -71 285 -129 99 -58 221 -126
270 -151 50 -25 171 -104 270 -176 336 -245 637 -397 1135 -573 85 -30 231
-93 325 -140 l170 -86 0 95 c0 114 -26 139 -190 188 -66 19 -156 51 -200 70
-44 19 -143 47 -220 61 -153 29 -194 50 -188 99 3 18 -3 58 -12 89 -11 41 -7
62 12 75 23 14 21 17 -6 18 -18 0 -39 -9 -45 -19 -7 -11 -25 -14 -42 -8 -16 6
-45 4 -64 -4 -52 -23 -98 -12 -264 63 -200 90 -207 95 -233 146 -29 57 -88
101 -138 101 -91 2 -430 172 -430 216 0 14 -7 24 -15 22 -45 -7 -146 55 -138
86 6 24 -8 38 -44 46 -90 21 -163 55 -163 76 0 28 168 0 268 -45 377 -169 470
-193 647 -166 149 23 163 20 132 -30 -34 -56 -9 -84 74 -84 43 0 118 -14 166
-30 88 -30 153 -24 153 14 0 35 66 88 75 61 5 -14 16 -20 26 -15 20 13 65 -64
51 -87 -6 -9 31 -55 81 -102 l92 -86 -65 -41 c-58 -37 -61 -43 -28 -55 28 -10
45 -1 65 35 21 40 36 47 79 36 58 -14 88 -47 70 -76 -6 -9 17 -3 51 15 43 22
74 26 98 13 123 -64 345 -91 345 -42 0 39 -7 42 -240 100 -249 61 -362 126
-420 240 -45 90 -193 539 -221 674 -17 82 -38 118 -95 166 -41 34 -81 68 -90
76 -9 8 -45 61 -80 118 -147 238 -226 344 -267 355 -24 6 -58 16 -76 23 -19 8
-10 -12 23 -47 146 -155 226 -258 226 -290 0 -50 90 -186 182 -277 l77 -76 -8
-151 c-8 -147 17 -199 61 -128 14 23 66 -50 67 -96 2 -44 -78 -45 -109 -1 -17
24 -30 32 -30 20 0 -13 9 -29 20 -36 32 -20 24 -70 -10 -57 -16 6 -30 34 -30
61 0 43 -7 49 -45 39 -25 -7 -52 -13 -60 -13 -8 0 -15 -12 -15 -27 0 -48 -95
-119 -142 -107 -24 7 -69 -1 -100 -17 -31 -16 -61 -29 -68 -29 -24 0 221 219
246 219 17 1 24 21 20 56 -3 33 -17 53 -33 49 -16 -3 -23 9 -18 30 18 83 -76
206 -157 206 -71 0 -55 15 32 30 93 16 93 15 17 118 -80 108 -126 123 -94 31
40 -115 0 -83 -65 52 l-65 135 53 46 c30 25 54 53 54 62 -1 29 -137 105 -224
125 -47 10 -95 33 -108 50 -12 17 -41 31 -64 31 -23 0 -47 8 -53 18 -6 10 -35
24 -66 31 -30 8 -98 36 -150 62 l-95 47 0 -47z m463 -244 c15 -18 59 -47 97
-63 39 -16 59 -34 45 -38 -26 -10 -203 94 -204 119 -2 26 33 16 62 -18z m750
-1052 c36 -58 25 -80 -34 -68 -33 7 -59 3 -59 -7 0 -11 -11 -20 -23 -20 -13 0
-2 24 25 53 l48 53 -45 -11 c-25 -6 -45 -3 -45 7 0 27 115 22 133 -7z"/>
<path d="M3805 2275 c-127 -64 -144 -88 -101 -131 40 -40 132 -27 220 31 53
35 112 56 165 58 44 1 112 3 149 5 95 3 61 28 -75 55 -62 12 -140 28 -173 34
-44 9 -92 -4 -185 -52z"/>
<path d="M832 568 c-7 -19 1 -49 18 -68 17 -19 26 -48 19 -65 -6 -17 2 -35 20
-42 17 -6 31 -26 31 -44 0 -17 8 -26 18 -20 11 6 23 0 28 -14 4 -14 4 -2 -2
25 -5 28 -9 66 -8 86 1 20 -20 46 -47 58 -35 16 -43 29 -29 46 14 17 12 32 -7
48 -22 18 -31 16 -41 -10z"/>
</g>
</svg>
